<?xml version="1.0" encoding="UTF-8" standalone="no"?>
<svg
   xmlns:dc="http://purl.org/dc/elements/1.1/"
   xmlns:cc="http://creativecommons.org/ns#"
   xmlns:rdf="http://www.w3.org/1999/02/22-rdf-syntax-ns#"
   xmlns:svg="http://www.w3.org/2000/svg"
   xmlns="http://www.w3.org/2000/svg"
   xmlns:sodipodi="http://sodipodi.sourceforge.net/DTD/sodipodi-0.dtd"
   xmlns:inkscape="http://www.inkscape.org/namespaces/inkscape"
   inkscape:version="1.0 (4035a4fb49, 2020-05-01)"
   inkscape:export-ydpi="160.00999"
   inkscape:export-xdpi="160.00999"
   inkscape:export-filename="C:\Users\berend_kn\git\1672\static\kom_map.png"
   sodipodi:docname="kom_gorcum.svg"
   viewBox="0 0 1061 1404"
   height="1404"
   width="1061"
   id="svg833"
   version="1.1">
  <metadata
     id="metadata839">
    <rdf:RDF>
      <cc:Work
         rdf:about="">
        <dc:format>image/svg+xml</dc:format>
        <dc:type
           rdf:resource="http://purl.org/dc/dcmitype/StillImage" />
        <dc:title></dc:title>
      </cc:Work>
    </rdf:RDF>
  </metadata>
  <defs
     id="defs837" />
  <sodipodi:namedview
     inkscape:current-layer="g841"
     inkscape:window-maximized="1"
     inkscape:window-y="22"
     inkscape:window-x="-8"
     inkscape:cy="4.1278471"
     inkscape:cx="17.585297"
     inkscape:zoom="18.529915"
     showgrid="false"
     id="namedview835"
     inkscape:window-height="1027"
     inkscape:window-width="1920"
     inkscape:pageshadow="2"
     inkscape:pageopacity="0"
     guidetolerance="10"
     gridtolerance="10"
     objecttolerance="10"
     borderopacity="1"
     bordercolor="#666666"
     pagecolor="#ffffff"
     inkscape:document-rotation="0" />
  <g
     id="g841"
     inkscape:label="Image"
     inkscape:groupmode="layer">
    <path
       sodipodi:nodetypes="csscsccsssscscssccscccccccsssssssssccsssccccscssssssssssssssssssssssscsscssssssscsscscscsssscscsscscsscssssccscsssccscssc"
       id="path845"
       d="m 203.06991,7.3322416 c 1.9428,3.6697004 3.23801,12.0885004 2.59041,14.4631004 -0.64761,2.3745 -4.10148,6.476 -6.04429,7.1236 -1.9428,0.6476 -9.92988,2.1587 -12.73616,0.4317 -2.80627,-1.7269 -6.47601,-1.9428 -10.36162,-1.9428 -3.88561,0 -8.63469,0.8635 -11.87269,1.2952 -3.23801,0.4318 -4.10148,2.5904 -8.20296,1.0794 -4.10147,-1.5111 -3.88561,-3.4539 -7.33948,-4.1015 -3.45387,-0.6476 -8.63469,1.711589 -9.92989,0.416389 -1.2952,-1.2952 -4.10148,-2.790889 -6.90775,-3.654389 -2.80627,-0.8635 -4.96494,1.2952 -7.12362,0.6476 -2.15867,-0.6476 -3.45387,-1.5111 -6.04428,-3.8856 -2.5904,-2.3746 -6.04428,-7.3395 -9.71402,-8.6347 -3.66974,-1.2952004 -3.88561,-1.5111004 -8.20295,-3.2380004 -4.317335,-1.727 -3.238005,1.5111 -5.828405,-3.238 -2.59041,-4.74909699 -2.80628,-12.736197 -6.26015,-14.031397 -3.45388,-1.2951996 -10.0193,-2.7845756 -14.76838,-1.4893756 -8.308479,1.9488659 -17.798452,1.354476 -23.691423,3.076098 -6.04428,2.5904 -17.233925,4.716823 -19.392595,6.0120229 C 29.080987,-1.04321 18.683915,3.5931277 18.683915,3.5931277 14.359304,3.428803 17.025021,3.4399339 14.402017,2.7990416 c -0.86347,-2.15869999 -4.31734,-4.964997 -7.1236102,-5.828397 -2.80628,-0.8635 -9.06642,0 -11.00923,0.6476 -1.9428,0.6476 -6.4760098,2.80620001 -6.4760098,2.80620001 0,0 0,6.90779699 0.6475998,8.41889699 0.6476,1.5110004 2.15867,3.0221004 -2.5904098,3.4538004 -4.74908,0.4318 -12.08856,0.4318 -13.16789,0.4318 -1.07934,0 -9.71403,0 -12.30443,1.2952 -2.59041,1.2952 -11.8727,4.9649 -16.19004,5.6125 -4.31734,0.6476 -9.28229,1.2952 -14.03137,1.9428 -4.74907,0.6476 -11.00922,3.4539 -11.00922,1.5111 0,-1.9428 5.39668,-3.0222 -1.51107,-4.3174 -6.90775,-1.2952 -16.83764,-0.4317 -16.83764,-2.1586 0,-1.727 1.29519,-11.8727004 0,-12.7362004 -1.2952,-0.8635 -15.110697,-17.0534966 -20.291507,-18.9962966 -5.18081,-1.9428 -31.51661,1.2952 -35.83395,0.2159 -4.31734,-1.0794 -3.66974,-2.8063 -9.06642,-3.0222 -5.39668,-0.2158 -10.57749,1.0794 -11.22509,-0.4317 -0.6476,-1.5111 0.21586,-5.6126 -5.18081,-8.8506 -5.39668,-3.238 -14.89484,-8.4188 -21.58672,-9.0664 -6.69188,-0.6476 -29.35793,-1.7269 -29.35793,-1.7269 l -18.56458,-0.8635 -3.66974,-28.9262 12.52029,-24.393 c 0,0 21.58672,2.5904 24.39299,0 2.80628,-2.5904 9.06642,-25.904005 13.1679,-27.631005 4.10148,-1.7269 -0.43174,-7.5553 -1.72694,-10.1457 -1.2952,-2.5904 -10.14575,-22.6661 -12.52029,-26.5517 -2.37454,-3.8856 -18.34871,-34.7546 -22.23432,-40.1513 -3.88561,-5.3967 -19.64391,-28.2786 -22.01845,-33.0277 -2.37454,-4.749 -26.55166,-47.4907 -28.2786,-50.9446 -1.72694,-3.4539 -9.28229,-9.714 -7.33948,-12.7362 1.9428,-3.0221 3.45387,-1.7269 10.14575,-5.1808 6.69189,-3.4539 12.30443,-3.0221 16.40591,-4.9649 4.10147,-1.9428 11.87269,-3.238 12.95203,-7.3395 1.07933,-4.1015 11.00922,-22.23433 14.89483,-27.84687 3.88561,-5.61255 7.55535,-2.59041 8.85056,-9.92989 1.2952,-7.33949 -3.45388,-11.65683 1.07933,-15.32657 4.53321,-3.66974 11.22509,-6.04428 18.34871,-8.41882 7.12362,-2.37454 7.12362,-4.74908 16.83764,-5.18081 9.71402,-0.43174 20.93911,3.66974 23.52952,5.39668 2.5904,1.72693 13.1679,1.9428 19.85978,7.12361 6.69188,5.18081 13.59963,5.61255 15.32657,11.00923 1.72693,5.39668 2.15867,10.36162 6.04428,12.95203 3.8856,2.5904 26.11992,11.44096 29.35793,15.54241 3.238007,4.1015 5.828407,15.1107 8.202947,18.3487 2.37454,3.238 -1.72695,5.1808 7.77122,5.3967 9.49815,0.2159 16.83764,2.1587 19.42804,0.2159 2.59041,-1.9428 9.49816,-14.0314 14.24724,-17.2694 4.74907,-3.238 5.61254,-7.3395 10.79335,-5.6125 5.18082,1.7269 15.75831,13.8155 19.21218,18.1328 3.45388,4.3173 3.23801,8.203 9.92989,12.5203 6.6918798,4.3173 14.8948298,8.2029 18.9963098,7.3395 4.1014802,-0.8635 14.8948302,9.4981 17.4852402,7.1236 2.59041,-2.3745 8.20295,-10.1458 10.14576,-11.8727 1.9428,-1.7269 7.12361,-4.1015 9.92989,-2.1587 2.80627,1.9428 9.71402,3.6698 12.95203,8.8506 3.238,5.1808 9.49815,8.6347 11.22509,11.0092 1.72694,2.3745 8.20295,11.0092 9.92989,11.8727 1.72693,0.8635 3.669738,5.6125 17.269368,7.7712 13.599625,2.1587 30.437265,9.2823 36.697415,11.0092 6.26014,1.727 28.71033,4.5333 33.89114,3.6698 5.18081,-0.8635 13.59963,6.6919 21.80258,5.1808 8.20296,-1.5111 6.04428,-5.8284 11.00923,-1.0793 4.96494,4.749 9.71402,1.9428 11.44096,5.3966 1.72694,3.4539 0,6.2602 3.23801,9.2823 3.238,3.0222 9.28228,6.0443 11.65682,8.6347 2.37454,2.5904 -1.2952,10.7934 9.92989,12.3044 11.22509,1.5111 16.19004,3.2381 23.52952,4.965 7.33949,1.7269 12.73616,2.1587 15.54244,5.3967 2.80627,3.238 5.82842,3.4538 11.65683,4.3173 5.82842,0.8635 14.24724,-1.0793 17.05351,1.9428 2.80627,3.0222 3.45387,8.203 8.41882,11.0092 4.96494,2.8063 13.1679,7.5554 14.67897,9.4982 1.51107,1.9428 9.28228,7.1236 12.30442,7.9871 3.02214,0.8634 10.14576,8.4188 19.64392,11.0092 9.49815,2.5904 12.73616,6.476 18.56457,6.6919 5.82841,0.2159 6.04428,-5.1808 16.4059,-0.8635 10.36163,4.3174 13.59964,8.203 19.42805,7.9871 5.82841,-0.2159 1.07934,-1.5111 13.8155,2.8063 12.73616,4.3173 54.61439,3.238 53.53505,6.9077 -1.07933,3.6698 -12.73616,18.3487 -16.4059,20.939105 -3.66974,2.5904 -22.45019,13.8155 -27.84686,11.6569 -5.39668,-2.1587 -24.17713,-12.3045 -29.35794,-12.3045 -5.18081,0 -4.10147,3.6698 -12.52029,4.1015 -8.41882,0.4317 -41.66237,-4.3173 -49.86532,-6.476005 -8.20295,-2.1587 -23.74538,-4.5332 -28.49446,-13.3838 -4.74908,-8.8505 -9.28229,-16.8376 -15.97417,-19.8597 -6.69188,-3.0222 -31.94835,-12.9521 -37.34503,-14.4631 -5.39668,-1.5111 -53.10332,-29.1421 -53.96679,-31.3008 -0.86347,-2.1587 -50.72878,52.8875 -50.72878,52.8875 0,0 2.5904,5.6125 8.20295,4.9649 5.61255,-0.6476 8.85055,-4.9649 7.98708,1.727 -0.86346,6.6918 -0.43173,11.4409 -1.2952,13.3837 -0.86347,1.9428 -7.12361,68.861605 -7.12361,68.861605 0,0 1.9428,10.5775 -1.29521,15.7583 -3.23801,5.1809 -4.74908,4.1015 -3.88561,7.7713 0.86347,3.6697 -1.9428,9.2822996 3.66974,12.7360996 5.61255,3.45389701 10.14576,5.828397 17.26938,6.475997 7.12361,0.6476 10.57749,0 14.4631,0.8635 3.88561,0.8635 8.20295,2.8063 8.20295,2.8063 z"
       style="fill:none;stroke:#000000;stroke-width:1px;stroke-linecap:butt;stroke-linejoin:miter;stroke-opacity:1" />
  </g>
</svg>
