<?xml version="1.0" encoding="UTF-8" standalone="no"?>
<svg
   xmlns:dc="http://purl.org/dc/elements/1.1/"
   xmlns:cc="http://creativecommons.org/ns#"
   xmlns:rdf="http://www.w3.org/1999/02/22-rdf-syntax-ns#"
   xmlns:svg="http://www.w3.org/2000/svg"
   xmlns="http://www.w3.org/2000/svg"
   xmlns:sodipodi="http://sodipodi.sourceforge.net/DTD/sodipodi-0.dtd"
   xmlns:inkscape="http://www.inkscape.org/namespaces/inkscape"
   inkscape:version="1.0 (4035a4fb49, 2020-05-01)"
   height="130"
   width="921.81335"
   sodipodi:docname="Deltares_OP.svg"
   version="1.1"
   viewBox="0 0 921.81335 130"
   data-name="Layer 1"
   id="Layer_1">
  <metadata
     id="metadata857">
    <rdf:RDF>
      <cc:Work
         rdf:about="">
        <dc:format>image/svg+xml</dc:format>
        <dc:type
           rdf:resource="http://purl.org/dc/dcmitype/StillImage" />
        <dc:title>Artboard 1</dc:title>
      </cc:Work>
    </rdf:RDF>
  </metadata>
  <defs
     id="defs855" />
  <sodipodi:namedview
     inkscape:current-layer="Layer_1"
     inkscape:window-maximized="1"
     inkscape:window-y="22"
     inkscape:window-x="-8"
     inkscape:cy="151.11542"
     inkscape:cx="386.51583"
     inkscape:zoom="0.81506202"
     fit-margin-bottom="0"
     fit-margin-right="0"
     fit-margin-left="0"
     fit-margin-top="0"
     showgrid="false"
     id="namedview853"
     inkscape:window-height="1027"
     inkscape:window-width="1920"
     inkscape:pageshadow="2"
     inkscape:pageopacity="0"
     guidetolerance="10"
     gridtolerance="10"
     objecttolerance="10"
     borderopacity="1"
     bordercolor="#666666"
     pagecolor="#ffffff" />
  <title
     id="title846">Artboard 1</title>
  <path
     id="path848"
     style="fill:#ffffff"
     d="m 86.5,63.9 c 0,-22.4 -12.6,-31.6 -33,-31.6 -6.4,0 -12.6,0 -15.8,0.2 -3.2,0.2 -5.2,0.6 -5.2,3.8 v 61.2 a 177.7,177.7 0 0 0 18.2,1 c 20.8,0 35.8,-12.2 35.8,-34.6 z m -13.4,1 c 0,14.4 -8.8,23 -21.2,23 A 42.74,42.74 0 0 1 45.1,87.4 V 43 c 0,0 3.6,-0.3 7.6,-0.3 14.4,0 20.4,7.8 20.4,22.2 z m 20.2,9 c 0,16.4 8,24.6 24.4,24.6 a 43.47,43.47 0 0 0 15.2,-2.6 v -9.4 a 43.59,43.59 0 0 1 -13.6,2.4 c -8.8,0 -13.6,-4.6 -13.6,-13.4 h 24.6 c 4,0 5.6,-1 5.6,-3.8 v -1.8 c 0,-12 -6.4,-21.4 -20,-21.4 -14.4,0 -22.6,11 -22.6,25.4 z m 22.2,-16.2 c 5.2,0 8,3.6 8,9.6 h -17.6 c 0.8,-6 4.4,-9.6 9.6,-9.6 z m 42,-25.2 h -6.8 c -4,0 -5.6,1 -5.6,3.8 v 46.4 c 0,11.2 3.4,15.8 12.6,15.8 a 28.39,28.39 0 0 0 8.2,-1.3 v -9.1 a 18.68,18.68 0 0 1 -4.2,0.6 c -2.5,0 -4.2,-1.2 -4.2,-6.4 z m 28.4,0 h -6.6 c -4,0 -5.6,1 -5.6,3.8 v 46.4 c 0,11.2 3.6,15.8 14,15.8 a 36.59,36.59 0 0 0 9.8,-1.3 v -9.5 a 26.19,26.19 0 0 1 -5.8,0.8 c -3.6,0 -5.8,-1.8 -5.8,-7.8 V 59.1 h 6 c 4,0 5.6,-1 5.6,-3.8 v -5.8 h -11.6 z m 17.6,43.4 c 0,16.4 10.4,22.6 23.2,22.6 8,0 16.2,-1.6 21,-3.6 V 51.1 a 62.22,62.22 0 0 0 -17.2,-2.6 c -16.8,0 -27,11 -27,27.4 z m 12.8,-1.2 c 0,-11.6 5.8,-16.6 13,-16.6 a 26.3,26.3 0 0 1 6.2,0.7 v 28.9 c 0,0 -2.6,1.2 -7.8,1.2 -8,0 -11.4,-5.4 -11.4,-14.2 z m 44,22.8 h 12.4 V 68.3 c 0,-6.8 1.8,-9.2 6.6,-9.2 h 0.6 c 3.6,0 5.4,-0.6 5.4,-3.8 v -5.8 h -7.6 c -13.6,0 -17.4,8.4 -17.4,18.8 z m 27.8,-23.6 c 0,16.4 8,24.6 24.4,24.6 a 43.47,43.47 0 0 0 15.2,-2.6 v -9.4 a 43.59,43.59 0 0 1 -13.6,2.4 c -8.8,0 -13.6,-4.6 -13.6,-13.4 h 24.6 c 4,0 5.6,-1 5.6,-3.8 v -1.8 c 0,-12 -6.4,-21.4 -20,-21.4 -14.4,0 -22.6,11 -22.6,25.4 z m 22.2,-16.2 c 5.2,0 8,3.6 8,9.6 h -17.6 c 0.8,-6 4.4,-9.6 9.6,-9.6 z m 28,6.2 c 0,16 19.5,11.6 19.5,20 0,3.2 -3.1,5 -7.9,5 a 40.07,40.07 0 0 1 -10.3,-1.4 l -0.2,10 a 48.7,48.7 0 0 0 9.9,1 c 12.8,0 21.3,-6.2 21.3,-15.8 0,-15.6 -19.7,-12.4 -19.7,-20 0,-3.2 2.8,-4.8 7.2,-4.8 1.6,0 3.2,0.1 4.4,0.1 2.8,0 5,-0.5 5,-5.3 v -3.4 a 56.4,56.4 0 0 0 -8.8,-0.8 c -13.6,0 -20.4,7 -20.4,15.4 z" />
  <rect
     y="0"
     x="0"
     id="rect850"
     style="fill:none"
     height="130"
     width="400" />
  <text
     id="text863"
     y="98.359177"
     x="413.57816"
     style="font-size:87.1309px;line-height:1.25;font-family:ETBembo;-inkscape-font-specification:ETBembo;letter-spacing:0px;word-spacing:0px;fill:#ffffff;stroke-width:2.17827"
     xml:space="preserve"><tspan
       style="font-style:normal;font-variant:normal;font-weight:normal;font-stretch:normal;font-family:Arial;-inkscape-font-specification:Arial;stroke-width:2.17827"
       y="98.359177"
       x="413.57816"
       id="tspan861"
       sodipodi:role="line">Open Project</tspan></text>
</svg>
